#asldlaskjdlk
v 0.326389 -0.763889 -2.354798
v 0.326389 -0.500338 2.530482
v 0.326389 0.763889 1.402226
v 0.326389 0.763889 -2.354797
v 0.326389 0.326389 -5.511229
v 0.326389 -0.326389 -5.511230
v 0.763889 -0.326389 -2.354797
v 1.731579 0.132223 -1.952108
v 0.763889 0.135125 0.637518
v 0.763889 -0.326389 0.304715
v 0.326389 0.200714 5.386310
v 0.326389 0.589940 4.258054
v 0.350694 -0.753557 0.043921
v 0.350695 0.819444 -0.238142
v 0.350694 0.000000 -5.912046
v 1.787135 0.000000 -2.127465
v 1.717310 0.040566 0.164548
v 0.819444 0.000000 0.931946
v 0.819444 -0.350694 -0.119070
v 0.350695 0.461215 5.266920
v 0.302083 -0.598958 -4.321305
v 0.598958 -0.598958 -2.179440
v 0.598958 -0.533071 2.104291
v 0.598958 -0.302083 -4.321305
v 0.598958 0.107918 -4.321304
v 0.302083 -0.137744 4.509680
v 0.598958 -0.170308 3.694718
v 0.598958 0.367971 2.817296
v 0.302083 0.598958 -4.321304
v 0.598958 0.277080 -2.179439
v 0.598958 0.315723 -0.609380
v 0.302083 0.664846 2.817296
v 3.964264 -0.066224 1.098736
v 4.851370 0.369894 1.545368
v 1.904387 0.000000 0.399163
v 0.643229 -0.626757 -0.018787
v 0.643229 0.000000 -4.640706
v 0.643229 0.115304 3.437548
v 0.643229 0.325565 -1.684104
v 0.509259 -0.509259 -3.674153
v 0.509259 -0.304275 3.493272
v 0.509259 0.315094 -3.674153
v 0.509259 0.538543 2.264815
v 3.829592 -0.025658 0.864122
v 4.906926 0.237671 1.485140
v 4.889505 0.278237 2.272352
v 5.024178 0.237671 2.352933
v 3.847012 -0.066224 -1.427891
v 3.791457 0.065999 -1.252534
v -0.326389 -0.763889 -2.354798
v -0.326389 -0.500338 2.530482
v -0.326389 0.763889 1.402226
v -0.326389 0.763889 -2.354797
v -0.326389 0.326389 -5.511229
v -0.326389 -0.326389 -5.511230
v -0.763889 -0.326389 -2.354797
v -1.731579 0.132223 -1.952107
v -0.763889 0.135125 0.637518
v -0.763889 -0.326389 0.304715
v -0.326389 0.200714 5.386310
v -0.326389 0.589940 4.258054
v -0.000000 -0.819444 -2.530156
v -0.350694 -0.753557 0.043921
v 0.000000 -0.424118 2.793680
v 0.000000 0.819444 1.577583
v -0.350695 0.819444 -0.238142
v -0.000000 0.819444 -2.530155
v -0.000000 0.350694 -5.912046
v -0.350695 0.000000 -5.912046
v -0.000000 -0.350694 -5.912047
v -1.787135 0.000000 -2.127465
v -1.717310 0.040566 0.164548
v -0.819444 0.000000 0.931946
v -0.819444 -0.350694 -0.119070
v -0.350694 0.461215 5.266920
v 0.000000 0.746021 4.984856
v 0.000000 0.439959 6.200953
v -0.302084 -0.598958 -4.321305
v -0.598958 -0.598958 -2.179440
v -0.598958 -0.533071 2.104291
v -0.598959 -0.302083 -4.321305
v -0.598959 0.107918 -4.321304
v -0.302083 -0.137744 4.509680
v -0.598958 -0.170308 3.694718
v -0.598958 0.367971 2.817296
v -0.302084 0.598958 -4.321304
v -0.598959 0.277080 -2.179439
v -0.598958 0.315723 -0.609380
v -0.302083 0.664846 2.817296
v -3.964264 -0.066224 1.098737
v -4.851370 0.369894 1.545369
v -1.904387 0.000000 0.399163
v -0.643229 -0.626757 -0.018787
v -0.643229 0.000000 -4.640706
v -0.643229 0.115304 3.437548
v -0.643229 0.325565 -1.684104
v -0.509260 -0.509259 -3.674153
v -0.509259 -0.304275 3.493272
v -0.509260 0.315094 -3.674153
v -0.509259 0.538543 2.264815
v 0.000000 -0.779640 0.065881
v -0.000000 0.878472 -0.238142
v -0.000000 0.000000 -6.337914
v -3.829592 -0.025658 0.864122
v 0.000000 0.691822 6.203724
v -0.000000 -0.643229 -4.640706
v -4.906926 0.237671 1.485141
v 0.000000 0.048593 5.042338
v -0.000000 0.643229 -4.640706
v 0.000000 0.742061 3.218192
v -4.889505 0.278237 2.272353
v -5.024178 0.237671 2.352933
v -3.847012 -0.066224 -1.427891
v -3.791457 0.065999 -1.252534
vt 0.000000 0.000000
vt 1.000000 0.554734
vt 0.640122 1.000000
vt 0.500001 0.334242
vt 0.000000 0.665755
vt 0.140121 0.000000
vt 0.500001 0.445264
vt 1.000000 0.000000
vt 0.500000 0.999998
vn 0.074400 -0.997200 0.003500
vn 0.227900 -0.970300 -0.081000
vn 0.584200 -0.808200 -0.075000
vn 0.394000 -0.918900 -0.019900
vn -0.126300 -0.983700 0.128200
vn 0.406000 -0.912600 0.048700
vn 0.149000 -0.974100 0.170100
vn -0.234200 -0.951400 0.200000
vn 0.165900 0.985500 0.035800
vn 0.302900 0.952000 0.044900
vn 0.639400 0.766200 0.064600
vn 0.907900 0.417100 0.041200
vn 0.181000 0.983200 -0.025300
vn 0.827400 0.561000 -0.024200
vn 0.878000 0.477000 -0.040600
vn 0.227900 0.970300 -0.081000
vn 0.611100 0.611100 -0.503200
vn 0.328600 0.920400 -0.211800
vn 0.854800 0.516800 -0.047000
vn 0.814600 0.574300 -0.081100
vn 0.611100 -0.611100 -0.503200
vn 0.920400 -0.328600 -0.211800
vn 0.701400 -0.701400 -0.127300
vn 0.348300 -0.915200 -0.202500
vn 0.313800 -0.949400 -0.014600
vn 0.838700 -0.544100 -0.024200
vn 0.828100 -0.554400 -0.083000
vn 0.790300 -0.496100 -0.359700
vn 0.017100 0.998900 0.042900
vn 0.482500 0.847900 -0.219600
vn 0.438200 0.872000 -0.218400
vn 0.147700 0.983000 -0.109400
vn 0.186800 0.905700 0.380400
vn 0.226900 0.973700 0.018300
vn 0.805500 0.592200 -0.020800
vn 0.953100 0.297900 0.053300
vn 0.267100 -0.959400 0.090000
vn 0.993400 -0.087500 0.073900
vn 0.691300 -0.704500 0.160700
vn 0.912900 -0.406500 0.037000
vn 0.936200 -0.003900 0.351400
vn 0.103700 -0.942300 0.318300
vn 0.592300 -0.767100 0.246400
vn 0.987100 -0.009300 0.159600
vn 0.612900 0.789400 0.035100
vn 0.863800 0.501900 0.043200
vn 0.703300 0.703300 0.103000
vn 0.302300 0.952200 0.044400
vn 0.311100 0.949400 -0.042000
vn 0.312200 -0.949900 -0.014500
vn 0.793500 0.494800 -0.354300
vn 0.211200 0.811400 -0.544900
vn -0.032600 -0.999500 0.001500
vn -0.434700 0.890400 0.135100
vn -0.537000 -0.595000 0.598000
vn -0.032400 0.981600 0.188300
vn -0.159900 -0.987000 0.015100
vn -0.227900 -0.970300 -0.081000
vn -0.554400 -0.828100 -0.083000
vn -0.394000 -0.918900 -0.019900
vn -0.080100 -0.991600 0.101800
vn -0.406000 -0.912600 0.048700
vn -0.098900 -0.978600 0.180500
vn 0.234200 -0.951400 0.200000
vn -0.184400 0.982300 0.031900
vn -0.302900 0.952000 0.044900
vn -0.812200 0.583100 -0.019900
vn -0.907900 0.417100 0.041200
vn -0.165900 0.985700 -0.027800
vn -0.884100 0.450700 -0.123100
vn -0.860400 0.506800 -0.053100
vn -0.227900 0.970300 -0.081000
vn -0.611100 0.611100 -0.503200
vn -0.348300 0.915200 -0.202500
vn -0.854800 0.516800 -0.047000
vn -0.920400 0.328600 -0.211800
vn -0.611100 -0.611100 -0.503200
vn -0.915200 -0.348300 -0.202500
vn -0.701400 -0.701400 -0.127300
vn -0.328600 -0.920400 -0.211800
vn -0.313800 -0.949400 -0.014600
vn -0.838700 -0.544100 -0.024200
vn -0.808200 -0.584200 -0.075000
vn -0.790300 -0.496100 -0.359700
vn -0.017100 0.998900 0.042900
vn -0.482500 0.847900 -0.219600
vn -0.123300 0.992200 0.017800
vn -0.185200 0.981700 0.043800
vn -0.131100 0.989100 0.066500
vn -0.226900 0.973700 0.018300
vn -0.867700 0.497000 0.012600
vn -0.953100 0.297900 0.053300
vn -0.214100 -0.874200 0.435900
vn -0.993400 -0.087500 0.073900
vn -0.691300 -0.704500 0.160700
vn -0.856900 -0.495800 0.140800
vn -0.936200 -0.003900 0.351400
vn -0.056800 -0.931900 0.358200
vn -0.592300 -0.767100 0.246400
vn -0.987100 -0.009300 0.159600
vn -0.612900 0.789400 0.035100
vn -0.901900 0.418600 0.106100
vn -0.703300 0.703300 0.103000
vn -0.427700 0.903900 -0.002000
vn -0.311100 0.949400 -0.042000
vn -0.322700 -0.945500 -0.043600
vn -0.793500 0.494800 -0.354300
vn -0.211200 0.811400 -0.544900
vn 0.032600 -0.999500 0.001500
vn 0.434700 0.890400 0.135100
vn 0.537000 -0.595000 0.598000
vn 0.032400 0.981600 0.188300
vn 0.159900 -0.987000 0.015100
vn 0.211000 -0.973800 -0.084300
vn 0.554400 -0.828100 -0.083000
vn 0.518400 -0.855100 -0.001600
vn 0.080100 -0.991600 0.101800
vn 0.039500 -0.994000 0.101600
vn 0.098900 -0.978600 0.180500
vn -0.084900 -0.980300 0.178500
vn 0.184400 0.982300 0.031900
vn 0.204800 0.976200 0.071800
vn 0.812200 0.583100 -0.019900
vn 0.904600 0.425300 0.027800
vn 0.165900 0.985700 -0.027800
vn 0.884100 0.450700 -0.123100
vn 0.860400 0.506800 -0.053100
vn 0.211000 0.973800 -0.084300
vn 0.624000 0.624000 -0.470300
vn 0.348300 0.915200 -0.202500
vn 0.851400 0.514800 -0.100500
vn 0.920400 0.328600 -0.211800
vn 0.624000 -0.624000 -0.470300
vn 0.915200 -0.348300 -0.202500
vn 0.699500 -0.699500 -0.145900
vn 0.328600 -0.920400 -0.211800
vn 0.307500 -0.951400 -0.018000
vn 0.847500 -0.530100 -0.026800
vn 0.808200 -0.584200 -0.075000
vn 0.311300 -0.949600 -0.037800
vn 0.017400 0.998900 0.043400
vn 0.648000 0.692600 -0.316900
vn 0.123300 0.992200 0.017800
vn 0.185200 0.981700 0.043800
vn 0.131100 0.989100 0.066500
vn 0.157300 0.980100 0.121100
vn 0.867700 0.497000 0.012600
vn 0.905700 0.423200 0.023300
vn 0.214100 -0.874200 0.435900
vn 0.958900 -0.277400 0.059400
vn 0.964400 -0.257700 0.058800
vn 0.856900 -0.495800 0.140800
vn 0.933000 0.074300 0.352000
vn 0.056800 -0.931900 0.358200
vn 0.638800 -0.723500 0.261600
vn 0.986500 -0.017400 0.162800
vn 0.583900 0.807000 0.088900
vn 0.901900 0.418600 0.106100
vn 0.706900 0.706900 0.024800
vn 0.427700 0.903900 -0.002000
vn 0.922000 0.387200 0.000500
vn 0.322700 -0.945500 -0.043600
vn 0.656300 0.687600 -0.310500
vn -0.387600 0.920600 0.046800
vn -0.781300 0.359100 0.510600
vn -0.034500 0.979800 0.196900
vn -0.074400 -0.997200 0.003500
vn -0.211000 -0.973800 -0.084300
vn -0.584200 -0.808200 -0.075000
vn -0.518400 -0.855100 -0.001600
vn 0.126300 -0.983700 0.128200
vn -0.039500 -0.994000 0.101600
vn -0.149000 -0.974100 0.170100
vn 0.084900 -0.980300 0.178500
vn -0.165900 0.985500 0.035800
vn -0.204800 0.976200 0.071800
vn -0.639400 0.766200 0.064600
vn -0.904600 0.425300 0.027800
vn -0.181000 0.983200 -0.025300
vn -0.827400 0.561000 -0.024200
vn -0.878000 0.477000 -0.040600
vn -0.211000 0.973800 -0.084300
vn -0.624000 0.624000 -0.470300
vn -0.328600 0.920400 -0.211800
vn -0.851400 0.514800 -0.100500
vn -0.814600 0.574300 -0.081100
vn -0.624000 -0.624000 -0.470300
vn -0.920400 -0.328600 -0.211800
vn -0.699500 -0.699500 -0.145900
vn -0.348300 -0.915200 -0.202500
vn -0.307500 -0.951400 -0.018000
vn -0.847500 -0.530100 -0.026800
vn -0.828100 -0.554400 -0.083000
vn -0.311300 -0.949600 -0.037800
vn -0.017400 0.998900 0.043400
vn -0.648000 0.692600 -0.316900
vn -0.438200 0.872000 -0.218400
vn -0.147700 0.983000 -0.109400
vn -0.186800 0.905700 0.380400
vn -0.157300 0.980100 0.121100
vn -0.805500 0.592200 -0.020800
vn -0.905700 0.423200 0.023300
vn -0.267100 -0.959400 0.090000
vn -0.958900 -0.277400 0.059400
vn -0.964400 -0.257700 0.058800
vn -0.912900 -0.406500 0.037000
vn -0.933000 0.074300 0.352000
vn -0.103700 -0.942300 0.318300
vn -0.638800 -0.723500 0.261600
vn -0.986500 -0.017400 0.162800
vn -0.583900 0.807000 0.088900
vn -0.863800 0.501900 0.043200
vn -0.706900 0.706900 0.024800
vn -0.302300 0.952200 0.044400
vn -0.922000 0.387200 0.000500
vn -0.312200 -0.949900 -0.014500
vn -0.656300 0.687600 -0.310500
vn 0.387600 0.920600 0.046800
vn 0.781300 0.359100 0.510600
vn 0.034500 0.979800 0.196900
f 1/1/1 13/1/1 101/1/1
f 62/1/2 106/1/2 21/1/2
f 1/1/3 21/1/3 40/1/3
f 22/1/4 36/1/4 13/1/4
f 2/1/5 64/1/5 101/1/5
f 13/1/6 36/1/6 23/1/6
f 2/1/7 23/1/7 41/1/7
f 26/1/8 108/1/8 64/1/8
f 3/1/9 14/1/9 102/1/9
f 65/1/10 110/1/10 32/1/10
f 3/1/11 32/1/11 43/1/11
f 31/1/12 39/1/12 14/1/12
f 4/1/13 67/1/13 102/1/13
f 4/1/14 14/1/14 39/1/14
f 4/1/15 30/1/15 42/1/15
f 29/1/16 109/1/16 67/1/16
f 15/1/17 103/1/17 68/1/17
f 5/1/18 68/1/18 109/1/18
f 29/1/19 42/1/19 25/1/19
f 5/1/20 25/1/20 37/1/20
f 70/1/21 103/1/21 15/1/21
f 6/1/22 15/1/22 37/1/22
f 24/1/23 40/1/23 21/1/23
f 6/1/24 21/1/24 106/1/24
f 16/1/25 35/1/25 19/1/25
f 19/1/26 36/1/26 22/1/26
f 7/1/27 22/1/27 40/1/27
f 24/1/28 37/1/28 16/1/28
f 17/1/29 44/1/29 49/1/29
f 16/1/30 37/1/30 25/1/30
f 8/1/31 25/1/31 42/1/31
f 8/1/32 30/1/32 39/1/32
f 9/1/33 18/1/33 35/1/33
f 17/1/34 39/1/34 31/1/34
f 9/1/35 31/1/35 43/1/35
f 28/1/36 38/1/36 18/1/36
f 10/1/37 19/1/37 35/1/37
f 18/1/38 38/1/38 27/1/38
f 27/1/39 41/1/39 23/1/39
f 10/1/40 23/1/40 36/1/40
f 20/1/41 105/1/41 77/1/41
f 11/1/42 77/1/42 108/1/42
f 26/1/43 41/1/43 27/1/43
f 27/1/44 38/1/44 20/1/44
f 76/1/45 105/1/45 20/1/45
f 12/1/46 20/1/46 38/1/46
f 28/1/47 43/1/47 32/1/47
f 12/1/48 32/1/48 110/1/48
f 46/2/49 47/3/49 45/4/49
f 33/1/50 48/1/50 45/1/50
f 49/1/51 34/1/51 45/1/51
f 16/1/52 8/1/52 49/1/52
f 35/1/53 16/1/53 48/1/53
f 44/1/54 46/1/54 34/1/54
f 33/1/55 47/1/55 46/1/55
f 35/1/56 33/1/56 44/1/56
f 50/1/57 62/1/57 101/1/57
f 78/1/58 106/1/58 62/1/58
f 50/1/59 79/1/59 97/1/59
f 63/1/60 93/1/60 79/1/60
f 51/1/61 63/1/61 101/1/61
f 80/1/62 93/1/62 63/1/62
f 51/1/63 83/1/63 98/1/63
f 64/1/64 108/1/64 83/1/64
f 52/1/65 65/1/65 102/1/65
f 89/1/66 110/1/66 65/1/66
f 52/1/67 88/1/67 100/1/67
f 66/1/68 96/1/68 88/1/68
f 53/1/69 66/1/69 102/1/69
f 53/1/70 87/1/70 96/1/70
f 53/1/71 86/1/71 99/1/71
f 67/1/72 109/1/72 86/1/72
f 68/1/73 103/1/73 69/1/73
f 54/1/74 86/1/74 109/1/74
f 82/1/75 99/1/75 86/1/75
f 54/1/76 69/1/76 94/1/76
f 69/1/77 103/1/77 70/1/77
f 55/1/78 81/1/78 94/1/78
f 78/1/79 97/1/79 81/1/79
f 55/1/80 70/1/80 106/1/80
f 74/1/81 92/1/81 71/1/81
f 79/1/82 93/1/82 74/1/82
f 56/1/83 81/1/83 97/1/83
f 71/1/84 94/1/84 81/1/84
f 114/1/85 104/1/85 72/1/85
f 82/1/86 94/1/86 71/1/86
f 57/1/87 87/1/87 99/1/87
f 57/1/88 72/1/88 96/1/88
f 58/1/89 72/1/89 92/1/89
f 88/1/90 96/1/90 72/1/90
f 58/1/91 85/1/91 100/1/91
f 73/1/92 95/1/92 85/1/92
f 59/1/93 73/1/93 92/1/93
f 84/1/94 95/1/94 73/1/94
f 80/1/95 98/1/95 84/1/95
f 59/1/96 74/1/96 93/1/96
f 77/1/97 105/1/97 75/1/97
f 60/1/98 83/1/98 108/1/98
f 84/1/99 98/1/99 83/1/99
f 75/1/100 95/1/100 84/1/100
f 75/1/101 105/1/101 76/1/101
f 61/1/102 85/1/102 95/1/102
f 89/1/103 100/1/103 85/1/103
f 61/1/104 76/1/104 110/1/104
f 107/5/105 112/6/105 111/7/105
f 90/1/106 112/1/106 107/1/106
f 107/1/107 91/1/107 114/1/107
f 71/1/108 113/1/108 114/1/108
f 92/1/109 90/1/109 113/1/109
f 91/1/110 111/1/110 104/1/110
f 111/1/111 112/1/111 90/1/111
f 104/1/112 90/1/112 92/1/112
f 62/1/113 1/1/113 101/1/113
f 1/1/114 62/1/114 21/1/114
f 22/1/115 1/1/115 40/1/115
f 1/1/116 22/1/116 13/1/116
f 13/1/117 2/1/117 101/1/117
f 2/1/118 13/1/118 23/1/118
f 26/1/119 2/1/119 41/1/119
f 2/1/120 26/1/120 64/1/120
f 65/1/121 3/1/121 102/1/121
f 3/1/122 65/1/122 32/1/122
f 31/1/123 3/1/123 43/1/123
f 3/1/124 31/1/124 14/1/124
f 14/1/125 4/1/125 102/1/125
f 30/1/126 4/1/126 39/1/126
f 29/1/127 4/1/127 42/1/127
f 4/1/128 29/1/128 67/1/128
f 5/1/129 15/1/129 68/1/129
f 29/1/130 5/1/130 109/1/130
f 5/1/131 29/1/131 25/1/131
f 15/1/132 5/1/132 37/1/132
f 6/1/133 70/1/133 15/1/133
f 24/1/134 6/1/134 37/1/134
f 6/1/135 24/1/135 21/1/135
f 70/1/136 6/1/136 106/1/136
f 7/1/137 16/1/137 19/1/137
f 7/1/138 19/1/138 22/1/138
f 24/1/139 7/1/139 40/1/139
f 7/1/140 24/1/140 16/1/140
f 8/1/141 17/1/141 49/1/141
f 8/1/142 16/1/142 25/1/142
f 30/1/143 8/1/143 42/1/143
f 17/1/144 8/1/144 39/1/144
f 17/1/145 9/1/145 35/1/145
f 9/1/146 17/1/146 31/1/146
f 28/1/147 9/1/147 43/1/147
f 9/1/148 28/1/148 18/1/148
f 18/1/149 10/1/149 35/1/149
f 10/1/150 18/1/150 27/1/150
f 10/1/151 27/1/151 23/1/151
f 19/1/152 10/1/152 36/1/152
f 11/1/153 20/1/153 77/1/153
f 26/1/154 11/1/154 108/1/154
f 11/1/155 26/1/155 27/1/155
f 11/1/156 27/1/156 20/1/156
f 12/1/157 76/1/157 20/1/157
f 28/1/158 12/1/158 38/1/158
f 12/1/159 28/1/159 32/1/159
f 76/1/160 12/1/160 110/1/160
f 34/8/161 46/2/161 45/4/161
f 47/1/162 33/1/162 45/1/162
f 48/1/163 49/1/163 45/1/163
f 48/1/52 16/1/52 49/1/52
f 33/1/53 35/1/53 48/1/53
f 49/1/164 44/1/164 34/1/164
f 44/1/165 33/1/165 46/1/165
f 17/1/166 35/1/166 44/1/166
f 63/1/167 50/1/167 101/1/167
f 50/1/168 78/1/168 62/1/168
f 78/1/169 50/1/169 97/1/169
f 50/1/170 63/1/170 79/1/170
f 64/1/171 51/1/171 101/1/171
f 51/1/172 80/1/172 63/1/172
f 80/1/173 51/1/173 98/1/173
f 51/1/174 64/1/174 83/1/174
f 66/1/175 52/1/175 102/1/175
f 52/1/176 89/1/176 65/1/176
f 89/1/177 52/1/177 100/1/177
f 52/1/178 66/1/178 88/1/178
f 67/1/179 53/1/179 102/1/179
f 66/1/180 53/1/180 96/1/180
f 87/1/181 53/1/181 99/1/181
f 53/1/182 67/1/182 86/1/182
f 54/1/183 68/1/183 69/1/183
f 68/1/184 54/1/184 109/1/184
f 54/1/185 82/1/185 86/1/185
f 82/1/186 54/1/186 94/1/186
f 55/1/187 69/1/187 70/1/187
f 69/1/188 55/1/188 94/1/188
f 55/1/189 78/1/189 81/1/189
f 78/1/190 55/1/190 106/1/190
f 56/1/191 74/1/191 71/1/191
f 56/1/192 79/1/192 74/1/192
f 79/1/193 56/1/193 97/1/193
f 56/1/194 71/1/194 81/1/194
f 57/1/195 114/1/195 72/1/195
f 57/1/196 82/1/196 71/1/196
f 82/1/197 57/1/197 99/1/197
f 87/1/198 57/1/198 96/1/198
f 73/1/199 58/1/199 92/1/199
f 58/1/200 88/1/200 72/1/200
f 88/1/201 58/1/201 100/1/201
f 58/1/202 73/1/202 85/1/202
f 74/1/203 59/1/203 92/1/203
f 59/1/204 84/1/204 73/1/204
f 59/1/205 80/1/205 84/1/205
f 80/1/206 59/1/206 93/1/206
f 60/1/207 77/1/207 75/1/207
f 77/1/208 60/1/208 108/1/208
f 60/1/209 84/1/209 83/1/209
f 60/1/210 75/1/210 84/1/210
f 61/1/211 75/1/211 76/1/211
f 75/1/212 61/1/212 95/1/212
f 61/1/213 89/1/213 85/1/213
f 89/1/214 61/1/214 110/1/214
f 91/9/215 107/5/215 111/7/215
f 113/1/216 90/1/216 107/1/216
f 113/1/217 107/1/217 114/1/217
f 57/1/108 71/1/108 114/1/108
f 71/1/109 92/1/109 113/1/109
f 114/1/218 91/1/218 104/1/218
f 104/1/219 111/1/219 90/1/219
f 72/1/220 104/1/220 92/1/220
